<?xml version="1.0" standalone="no"?>
<!DOCTYPE svg PUBLIC "-//W3C//DTD SVG 20010904//EN"
 "http://www.w3.org/TR/2001/REC-SVG-20010904/DTD/svg10.dtd">
<svg version="1.0" xmlns="http://www.w3.org/2000/svg"
 width="700.000000pt" height="700.000000pt" viewBox="0 0 700.000000 700.000000"
 preserveAspectRatio="xMidYMid meet">
<metadata>
Created by potrace 1.14, written by Peter Selinger 2001-2017
</metadata>
<g transform="translate(0.000000,700.000000) scale(0.100000,-0.100000)"
fill="#000000" stroke="none">
<path d="M1330 4980 l0 -270 595 0 595 0 0 -1330 0 -1330 300 0 300 0 0 1330
0 1330 600 0 600 0 0 270 0 270 -1495 0 -1495 0 0 -270z"/>
<path d="M3783 4464 c-176 -87 -433 -531 -433 -747 0 -109 29 -136 212 -196
196 -65 250 -142 250 -356 0 -183 -22 -318 -172 -1035 -142 -678 -155 -771
-115 -839 35 -59 83 -76 210 -75 140 2 270 35 410 103 220 108 312 258 244
399 -12 24 -73 98 -136 165 -177 189 -226 275 -189 332 39 59 96 45 284 -69
221 -134 314 -166 493 -166 194 0 355 63 495 193 158 147 253 332 304 594 28
137 38 432 21 583 -49 434 -209 834 -405 1017 -146 137 -297 159 -444 63 -75
-48 -136 -110 -276 -278 -199 -240 -271 -291 -354 -248 -42 22 -67 78 -112
256 -40 156 -73 246 -102 280 -47 56 -107 64 -185 24z m1130 -699 c239 -42
395 -213 427 -468 35 -282 -118 -505 -401 -583 -89 -25 -329 -26 -415 -2 -200
55 -338 190 -375 366 -16 77 -7 213 20 286 103 291 416 460 744 401z"/>
</g>
</svg>
