<svg xmlns="http://www.w3.org/2000/svg" viewBox="0 0 250 46.35"><path d="M13.86 36.75V6.19H0V0h34.7v6.19H20.84v30.55h-6.98Z"/><path d="M50.51 24.57H31.88c.26 4.67 2.78 7.4 6.56 7.4 2.84 0 4.72-1.31 5.35-3.41h6.51c-1 4.99-5.2 8.82-11.97 8.82-7.98 0-13.18-5.46-13.18-13.65S30.29 9.87 38.12 9.87s12.44 5.41 12.44 13.18c0 .37 0 .84-.05 1.52Zm-18.27-4.83h11.34c-.32-2.94-2.47-4.72-5.46-4.72s-5.3 1.94-5.88 4.72Zm40.92-1.42c0 .58 0 1.26-.05 2.21h-5.77v-1.15c0-2.15-.84-3.36-2.41-3.36-2.47 0-4.78 3.04-4.78 7.66v13.07h-6.67V10.39h6.56v5.93c1.36-3.52 3.99-6.51 7.51-6.51 4.2 0 5.62 3.89 5.62 8.5Zm22.44 0c0 .58 0 1.26-.05 2.21h-5.77v-1.15c0-2.15-.84-3.36-2.41-3.36-2.47 0-4.78 3.04-4.78 7.66v13.07h-6.67V10.39h6.56v5.93c1.36-3.52 3.99-6.51 7.51-6.51 4.2 0 5.62 3.89 5.62 8.5Zm20.61-7.93h6.67v26.35h-6.51v-5.3c-2.21 3.62-5.35 5.88-8.87 5.88-6.25 0-9.82-5.62-9.82-13.75s3.52-13.7 9.71-13.7c3.31 0 6.51 1.94 8.82 5.57V10.4Zm.16 13.18c0-5.09-4.3-8.03-7.09-8.03-2.94 0-4.88 2.63-4.88 7.98s2.05 8.14 5.04 8.14c2.78 0 6.93-2.99 6.93-8.08Zm26.29 14.02c-2.68 0-4.46-1.21-5.88-2.1-.94-.58-1.63-1.05-2.31-1.05-.47 0-.89.26-.89.84 0 .63.58 1.58 1.89 2.89 1.21 1.21 2.31 2.21 2.31 3.46 0 2.73-4.88 4.72-8.03 4.72-1.47 0-2.52-.42-2.52-1.89 0-3.1 3.62-15.96 3.62-20.58 0-3.36-1.79-3.67-3.31-4.15-1.58-.47-2.15-.94-2.15-2.1 0-2.26 3.36-8.92 6.09-8.92 1.21 0 1.73 1.31 2.26 3.57.47 1.99.73 3.31 1.89 3.31s2.31-1.47 3.62-3.04c1.47-1.84 3.15-3.83 5.25-3.83 4.57 0 7.88 8.71 7.88 15.64 0 9.13-4.67 13.23-9.71 13.23Zm-1.31-8.19c5.14 0 7.24-3.1 7.24-5.98 0-3.88-2.41-6.51-6.46-6.51-4.93 0-7.56 3.67-7.56 6.72 0 3.46 2.57 5.77 6.77 5.77Zm15.03-15.7c2.26-3.46 3.73-4.93 4.78-4.99 1 0 1.42.84 1.94 2.94.58 2.36.79 5.41 1.94 5.41.84 0 1.73-1.1 4.57-5.04 1.52-2.1 2.68-3.31 3.83-3.31 1.31 0 1.73 1.05 1.73 3.2 0 5.46-2.36 9.97-4.83 9.97-2.26 0-3.67-1.73-5.41-1.73-1.31 0-1.73 1.1-1.73 2.2 0 4.67 2.89 9.82 2.89 12.18 0 1.84-1.47 2.68-5.04 2.68s-5.46-.73-5.46-2.57c0-1.42 1.05-3.2 2.15-5.09 1-1.73 1.94-3.47 1.94-5.09 0-1.73-1.36-2.57-3.36-3.47-1.21-.52-2.26-1-2.26-1.99 0-.95.79-2.78 2.31-5.3Zm30.41 2.94c-3.36 0-6.4 2.1-6.4 5.72 0 3.89 2.62 7.4 7.66 7.4 4.36 0 6.62-2.47 8.29-2.47.73 0 1.21.47 1.21 1.58s-.42 2.41-1.16 3.73c-1.73 3.2-4.51 4.99-7.82 4.99-6.98 0-11.97-7.24-11.97-17.11 0-7.77 4.83-11.76 12.02-11.76 5.93 0 9.5 2.68 9.5 6.77 0 2.47-1.42 4.83-3.41 6.82-3.46 3.46-7.14 4.83-8.82 4.83-.89 0-1.36-.47-1.36-1.05 0-1 1.15-1.78 2.52-2.78 1.99-1.47 3.36-2.68 3.36-4.2 0-1.42-1.21-2.47-3.62-2.47Zm15-4.6c2.84-1.63 4.3-3.47 6.2-6.56 1.26-2.05 1.94-2.99 3.04-2.99.73 0 1.42.42 1.42 1.26 0 1.58-1.31 4.15-1.31 6.25 0 1.1.52 1.84 2.15 1.84 2.63 0 5.62-2.36 7.35-2.36.73 0 1.47.32 1.47 1.68 0 2.68-1.58 7.19-4.36 7.19-1.21 0-2.31-.68-3.41-1.42-1.1-.73-2.1-1.52-3.25-1.52-1.73 0-2.26 2.41-2.15 5.83.16 5.62 2.42 7.19 4.72 7.19 1.31 0 2.47-.47 3.31-.84.79-.32 1.31-.47 1.73-.47.79 0 1.1.53 1.1 1.21 0 1.26-1.1 3.62-2.89 5.67-1.73 1.94-4.09 3.57-6.72 3.57-3.78 0-6.25-3.41-6.25-9.4 0-4.3.95-9.5.95-11.13 0-.58-.1-.94-.58-1.26-1.16-.79-3.99-.73-3.99-2.1 0-.79.58-1.1 1.47-1.63Zm30.99-3.36c4.57 0 6.72 3.15 8.87 3.15 1.89 0 2.89-2.36 4.83-2.36 1 0 1.68.47 1.68 1.63 0 2.52-3.57 7.87-3.57 11.65 0 2.05.84 3.15 3.25 3.78 1.63.42 2.15 1 2.15 2.05 0 2.68-3.57 8.98-5.98 8.98-1.58 0-1.95-2.1-2.42-3.99-.37-1.52-.68-2.89-1.84-2.89-2.52 0-4.93 6.88-8.87 6.88S223 29.95 223 21.65c0-7.77 3.89-12.97 9.76-12.97Zm.47 20.68c4.94 0 7.56-3.67 7.56-6.72 0-3.46-2.57-5.77-6.77-5.77-5.14 0-7.24 3.1-7.24 5.98 0 3.88 2.41 6.51 6.46 6.51Z"/></svg>